<?xml version="1.0" standalone="no"?><!DOCTYPE svg PUBLIC "-//W3C//DTD SVG 1.1//EN" "http://www.w3.org/Graphics/SVG/1.1/DTD/svg11.dtd"><svg t="1515311034948" class="icon" style="" viewBox="0 0 1024 1024" version="1.1" xmlns="http://www.w3.org/2000/svg" p-id="2003" xmlns:xlink="http://www.w3.org/1999/xlink" width="200" height="200"><defs><style type="text/css"></style></defs><path d="M534.79424 1017.92768c-0.73728 0.37888-1.45408 0.73728-2.0224 0.9984-5.52448 2.97472-13.95712 5.04832-22.28736 5.04832-2.21696 0-7.26528-0.45056-9.43104-0.85504-4.50048-0.6912-9.83552-2.4064-14.71488-4.90496-0.18944-0.11776-0.40448-0.21504-0.6656-0.3584C-11.28448 814.53056 62.99136 238.85312 63.82592 233.04192c3.16928-22.81472 20.19328-40.96 42.36288-45.12768C268.55424 157.26592 447.488 34.05312 475.42272 14.2848c5.92896-5.23776 12.83584-9.78944 20.1728-11.81184 8.38144-2.88256 18.67264-3.21536 28.3136-0.59392 8.71424 2.33472 16.57344 6.71744 22.97856 12.81024 30.79168 21.43232 209.6128 143.0528 370.688 173.22496 22.12352 4.1216 39.17312 22.2208 42.38848 45.0304 0.04608 0.0256 0.04608 0.04608 0.04608 0.07168C960.82432 238.83264 1035.12576 814.91456 534.79424 1017.92768zM911.744 264.04864c0 0 0-0.0256-0.0256-0.04608-2.85696-20.55168-18.00192-36.864-37.67296-40.55552-143.07328-27.19744-301.91104-144.21504-329.27744-163.5328-5.69344-5.4784-12.66688-9.40544-20.43392-11.52512-8.5504-2.33472-17.69472-2.048-25.12384 0.54784-6.52288 1.83296-12.6464 5.26336-17.93024 9.97888-24.81664 17.78688-189.70112 132.4544-333.94176 160.0768-19.69664 3.7376-34.816 24.52992-37.62688 45.0816C108.97408 269.312 48.94208 787.71712 490.37824 970.79808c0.24064 0.14336 0.43008 0.24064 0.59392 0.3328 4.33664 2.26304 9.07264 3.80928 13.07136 4.4288 1.93024 0.3584 6.43072 0.76288 8.36096 0.76288 7.42912 0 14.90944-1.85856 19.8144-4.54656 0.50176-0.21504 1.14176-0.54784 1.80736-0.90624C978.47296 788.07552 912.4608 269.2864 911.744 264.04864z" p-id="2004"></path><path d="M231.3472 383.44704l31.85152 0 0 289.59232-31.85152 0L231.3472 383.44704z" p-id="2005"></path><path d="M539.75552 573.12768l37.65248 8.68352c-18.35008 62.76096-60.3392 94.59712-125.97248 95.5648-83.03104-4.8384-126.94528-52.59776-131.7632-143.34464 3.85024-98.46272 48.73728-150.0928 134.66112-154.9312 55.02464 1.9456 94.11584 29.93152 117.28896 83.98336l-36.1984 8.68864C518.0416 430.27968 490.03008 409.0368 451.4304 408.064c-58.89024 5.79072-91.21792 46.83264-97.00864 123.07456 3.84512 74.34752 35.70176 114.39104 95.5648 120.18176C497.27488 649.3952 527.20128 623.32928 539.75552 573.12768z" p-id="2006"></path><path d="M746.81856 555.75552l-89.77408 0 0 117.27872-31.85664 0L625.18784 383.44704l124.52352 0c58.86976 2.89792 91.21792 31.38048 97.01376 85.43232C845.75744 525.84448 812.45696 554.79808 746.81856 555.75552zM741.02784 412.40576l-83.98336 0 0 114.39104 83.98336 0c46.33088-0.95232 69.97504-20.74624 70.94784-59.3664C810.03008 431.72864 786.39104 413.37856 741.02784 412.40576z" p-id="2007"></path></svg>